<?xml version="1.0" encoding="UTF-8"?>
<svg id="Layer_1" data-name="Layer 1" xmlns="http://www.w3.org/2000/svg" viewBox="0 0 202 341.5">
  <defs>
    <style>
      .cls-1 {
        fill: #b32924;
      }

      .cls-1, .cls-2, .cls-3, .cls-4 {
        font-family: FuturaBT-Heavy, 'Futura Hv BT';
        font-size: 300px;
      }

      .cls-2 {
        fill: #414042;
      }

      .cls-3 {
        fill: #7f1617;
      }

      .cls-4 {
        fill: none;
        stroke: #fff;
      }
    </style>
  </defs>
  <text class="cls-3" transform="translate(.5 257.75)"><tspan x="0" y="0">T</tspan></text>
  <g>
    <text class="cls-2" transform="translate(13.5 270.75)"><tspan x="0" y="0">T</tspan></text>
    <text class="cls-2" transform="translate(13.3 270.55)"><tspan x="0" y="0">T</tspan></text>
    <text class="cls-2" transform="translate(13.1 270.35)"><tspan x="0" y="0">T</tspan></text>
    <text class="cls-2" transform="translate(12.9 270.15)"><tspan x="0" y="0">T</tspan></text>
    <text class="cls-2" transform="translate(12.7 269.95)"><tspan x="0" y="0">T</tspan></text>
    <text class="cls-2" transform="translate(12.5 269.75)"><tspan x="0" y="0">T</tspan></text>
    <text class="cls-2" transform="translate(12.3 269.55)"><tspan x="0" y="0">T</tspan></text>
    <text class="cls-2" transform="translate(12.1 269.35)"><tspan x="0" y="0">T</tspan></text>
    <text class="cls-2" transform="translate(11.9 269.15)"><tspan x="0" y="0">T</tspan></text>
    <text class="cls-2" transform="translate(11.7 268.95)"><tspan x="0" y="0">T</tspan></text>
    <text class="cls-2" transform="translate(11.5 268.75)"><tspan x="0" y="0">T</tspan></text>
    <text class="cls-2" transform="translate(11.3 268.55)"><tspan x="0" y="0">T</tspan></text>
    <text class="cls-2" transform="translate(11.1 268.35)"><tspan x="0" y="0">T</tspan></text>
    <text class="cls-2" transform="translate(10.9 268.15)"><tspan x="0" y="0">T</tspan></text>
    <text class="cls-2" transform="translate(10.7 267.95)"><tspan x="0" y="0">T</tspan></text>
    <text class="cls-2" transform="translate(10.5 267.75)"><tspan x="0" y="0">T</tspan></text>
    <text class="cls-2" transform="translate(10.3 267.55)"><tspan x="0" y="0">T</tspan></text>
    <text class="cls-2" transform="translate(10.1 267.35)"><tspan x="0" y="0">T</tspan></text>
    <text class="cls-2" transform="translate(9.9 267.15)"><tspan x="0" y="0">T</tspan></text>
    <text class="cls-2" transform="translate(9.7 266.95)"><tspan x="0" y="0">T</tspan></text>
    <text class="cls-2" transform="translate(9.5 266.75)"><tspan x="0" y="0">T</tspan></text>
    <text class="cls-2" transform="translate(9.3 266.55)"><tspan x="0" y="0">T</tspan></text>
    <text class="cls-2" transform="translate(9.1 266.35)"><tspan x="0" y="0">T</tspan></text>
    <text class="cls-2" transform="translate(8.9 266.15)"><tspan x="0" y="0">T</tspan></text>
    <text class="cls-2" transform="translate(8.7 265.95)"><tspan x="0" y="0">T</tspan></text>
    <text class="cls-2" transform="translate(8.5 265.75)"><tspan x="0" y="0">T</tspan></text>
    <text class="cls-2" transform="translate(8.3 265.55)"><tspan x="0" y="0">T</tspan></text>
    <text class="cls-2" transform="translate(8.1 265.35)"><tspan x="0" y="0">T</tspan></text>
    <text class="cls-2" transform="translate(7.9 265.15)"><tspan x="0" y="0">T</tspan></text>
    <text class="cls-2" transform="translate(7.7 264.95)"><tspan x="0" y="0">T</tspan></text>
    <text class="cls-2" transform="translate(7.5 264.75)"><tspan x="0" y="0">T</tspan></text>
    <text class="cls-2" transform="translate(7.3 264.55)"><tspan x="0" y="0">T</tspan></text>
    <text class="cls-2" transform="translate(7.1 264.35)"><tspan x="0" y="0">T</tspan></text>
    <text class="cls-2" transform="translate(6.9 264.15)"><tspan x="0" y="0">T</tspan></text>
    <text class="cls-2" transform="translate(6.7 263.95)"><tspan x="0" y="0">T</tspan></text>
    <text class="cls-2" transform="translate(6.5 263.75)"><tspan x="0" y="0">T</tspan></text>
    <text class="cls-2" transform="translate(6.3 263.55)"><tspan x="0" y="0">T</tspan></text>
    <text class="cls-2" transform="translate(6.1 263.35)"><tspan x="0" y="0">T</tspan></text>
    <text class="cls-2" transform="translate(5.9 263.15)"><tspan x="0" y="0">T</tspan></text>
    <text class="cls-2" transform="translate(5.7 262.95)"><tspan x="0" y="0">T</tspan></text>
    <text class="cls-2" transform="translate(5.5 262.75)"><tspan x="0" y="0">T</tspan></text>
    <text class="cls-2" transform="translate(5.3 262.55)"><tspan x="0" y="0">T</tspan></text>
    <text class="cls-2" transform="translate(5.1 262.35)"><tspan x="0" y="0">T</tspan></text>
    <text class="cls-2" transform="translate(4.9 262.15)"><tspan x="0" y="0">T</tspan></text>
    <text class="cls-2" transform="translate(4.7 261.95)"><tspan x="0" y="0">T</tspan></text>
    <text class="cls-2" transform="translate(4.5 261.75)"><tspan x="0" y="0">T</tspan></text>
    <text class="cls-2" transform="translate(4.3 261.55)"><tspan x="0" y="0">T</tspan></text>
    <text class="cls-2" transform="translate(4.1 261.35)"><tspan x="0" y="0">T</tspan></text>
    <text class="cls-2" transform="translate(3.9 261.15)"><tspan x="0" y="0">T</tspan></text>
    <text class="cls-2" transform="translate(3.7 260.95)"><tspan x="0" y="0">T</tspan></text>
    <text class="cls-2" transform="translate(3.5 260.75)"><tspan x="0" y="0">T</tspan></text>
    <text class="cls-2" transform="translate(3.3 260.55)"><tspan x="0" y="0">T</tspan></text>
    <text class="cls-2" transform="translate(3.1 260.35)"><tspan x="0" y="0">T</tspan></text>
    <text class="cls-2" transform="translate(2.9 260.15)"><tspan x="0" y="0">T</tspan></text>
    <text class="cls-2" transform="translate(2.7 259.95)"><tspan x="0" y="0">T</tspan></text>
    <text class="cls-2" transform="translate(2.5 259.75)"><tspan x="0" y="0">T</tspan></text>
    <text class="cls-2" transform="translate(2.3 259.55)"><tspan x="0" y="0">T</tspan></text>
    <text class="cls-2" transform="translate(2.1 259.35)"><tspan x="0" y="0">T</tspan></text>
    <text class="cls-2" transform="translate(1.9 259.15)"><tspan x="0" y="0">T</tspan></text>
    <text class="cls-2" transform="translate(1.7 258.95)"><tspan x="0" y="0">T</tspan></text>
    <text class="cls-2" transform="translate(1.5 258.75)"><tspan x="0" y="0">T</tspan></text>
    <text class="cls-2" transform="translate(1.3 258.55)"><tspan x="0" y="0">T</tspan></text>
    <text class="cls-2" transform="translate(1.1 258.35)"><tspan x="0" y="0">T</tspan></text>
    <text class="cls-2" transform="translate(.9 258.15)"><tspan x="0" y="0">T</tspan></text>
    <text class="cls-2" transform="translate(.7 257.95)"><tspan x="0" y="0">T</tspan></text>
    <text class="cls-2" transform="translate(.5 257.75)"><tspan x="0" y="0">T</tspan></text>
  </g>
  <text class="cls-1" transform="translate(.5 257.75)"><tspan x="0" y="0">T</tspan></text>
  <text class="cls-4" transform="translate(.5 257.75)"><tspan x="0" y="0">T</tspan></text>
  <text class="cls-4" transform="translate(.5 257.75)"><tspan x="0" y="0">T</tspan></text>
</svg>